<?xml version="1.0" standalone="no"?>
<!DOCTYPE svg PUBLIC "-//W3C//DTD SVG 20010904//EN"
 "http://www.w3.org/TR/2001/REC-SVG-20010904/DTD/svg10.dtd">
<svg version="1.0" xmlns="http://www.w3.org/2000/svg"
 width="700.000000pt" height="700.000000pt" viewBox="0 0 700.000000 700.000000"
 preserveAspectRatio="xMidYMid meet">
<metadata>
Created by potrace 1.11, written by Peter Selinger 2001-2013
</metadata>
<g transform="translate(0.000000,700.000000) scale(0.100000,-0.100000)"
fill="#000000" stroke="none">
<path d="M2127 6124 c-1 -1 -38 -5 -82 -8 -44 -3 -91 -8 -105 -10 -14 -3 -41
-7 -60 -10 -71 -11 -218 -56 -315 -95 -457 -187 -803 -584 -927 -1061 -23 -90
-24 -95 -38 -192 -18 -126 -16 -390 4 -493 2 -11 7 -40 11 -65 12 -76 54 -228
92 -329 156 -421 471 -866 990 -1401 125 -128 346 -348 418 -415 34 -32 243
-227 310 -290 106 -100 174 -163 254 -235 52 -47 108 -98 125 -114 60 -55 113
-103 266 -241 85 -77 164 -149 176 -160 11 -11 63 -58 114 -105 52 -47 104
-95 116 -106 l22 -22 44 40 c24 21 68 61 98 87 30 27 71 64 91 82 19 19 53 49
75 68 21 19 66 59 100 90 147 136 262 241 297 272 21 19 56 50 76 69 21 19 80
73 131 120 52 47 110 101 130 120 52 50 279 263 315 295 101 91 495 489 625
631 457 500 730 929 858 1344 27 90 60 251 69 341 8 85 7 322 -2 377 -3 20
-10 66 -16 102 -77 491 -425 949 -879 1158 -142 66 -327 123 -445 137 -27 3
-72 8 -100 11 -68 8 -281 8 -330 0 -22 -4 -58 -9 -80 -12 -32 -4 -99 -18 -180
-38 -91 -23 -243 -83 -360 -143 -150 -76 -379 -250 -472 -359 l-41 -48 -64 65
c-88 92 -188 175 -293 246 -93 63 -281 163 -307 163 -8 0 -18 4 -24 9 -23 22
-260 90 -364 105 -108 15 -314 28 -323 20z"/>
</g>
</svg>
